<?xml version="1.0" encoding="UTF-8"?>
<svg xmlns="http://www.w3.org/2000/svg" width="64" height="64" viewBox="0 0 64 64" fill="none">
  <path d="M32.0026 46.6654C38.2159 46.6654 43.4693 42.772 45.6293 37.332H18.3759C20.5093 42.772 25.7893 46.6654 32.0026 46.6654ZM22.6693 29.332C23.7301 29.332 24.7476 28.9106 25.4977 28.1605C26.2478 27.4103 26.6693 26.3929 26.6693 25.332C26.6693 24.2712 26.2478 23.2537 25.4977 22.5036C24.7476 21.7535 23.7301 21.332 22.6693 21.332C21.6084 21.332 20.591 21.7535 19.8408 22.5036C19.0907 23.2537 18.6693 24.2712 18.6693 25.332C18.6693 26.3929 19.0907 27.4103 19.8408 28.1605C20.591 28.9106 21.6084 29.332 22.6693 29.332ZM41.3359 29.332C42.3968 29.332 43.4142 28.9106 44.1644 28.1605C44.9145 27.4103 45.3359 26.3929 45.3359 25.332C45.3359 24.2712 44.9145 23.2537 44.1644 22.5036C43.4142 21.7535 42.3968 21.332 41.3359 21.332C40.2751 21.332 39.2577 21.7535 38.5075 22.5036C37.7574 23.2537 37.3359 24.2712 37.3359 25.332C37.3359 26.3929 37.7574 27.4103 38.5075 28.1605C39.2577 28.9106 40.2751 29.332 41.3359 29.332ZM32.0026 53.332C26.3447 53.332 20.9184 51.0844 16.9177 47.0836C12.9169 43.0829 10.6693 37.6566 10.6693 31.9987C10.6693 26.3407 12.9169 20.9145 16.9177 16.9138C20.9184 12.913 26.3447 10.6654 32.0026 10.6654C37.6606 10.6654 43.0868 12.913 47.0875 16.9138C51.0883 20.9145 53.3359 26.3407 53.3359 31.9987C53.3359 37.6566 51.0883 43.0829 47.0875 47.0836C43.0868 51.0844 37.6606 53.332 32.0026 53.332ZM32.0026 5.33203C17.2559 5.33203 5.33594 17.332 5.33594 31.9987C5.33594 39.0711 8.14545 45.8539 13.1464 50.8549C15.6227 53.3311 18.5624 55.2954 21.7977 56.6355C25.0331 57.9756 28.5007 58.6654 32.0026 58.6654C39.075 58.6654 45.8578 55.8558 50.8588 50.8549C55.8598 45.8539 58.6693 39.0711 58.6693 31.9987C58.6693 28.4968 57.9795 25.0292 56.6394 21.7938C55.2993 18.5585 53.335 15.6187 50.8588 13.1425C48.3826 10.6663 45.4428 8.70204 42.2075 7.36191C38.9721 6.02179 35.5045 5.33203 32.0026 5.33203Z" fill="black"></path>
</svg>
