<?xml version="1.0" encoding="UTF-8"?>
<svg xmlns="http://www.w3.org/2000/svg" width="64" height="64" viewBox="0 0 64 64" fill="none">
  <path d="M34.6667 8C24.6133 8 16.5067 15.8667 16 25.76L10.88 32.5067C10.24 33.3333 10.88 34.6667 12 34.6667H16V42.6667C16 45.6267 18.3733 48 21.3333 48H24V56H42.6667V43.4933C48.9867 40.5067 53.3333 34.1333 53.3333 26.6667C53.3333 16.3733 45.0133 8 34.6667 8ZM45.4933 25.52L40.2667 26.9067L44.1067 30.7733C45.04 31.68 45.04 33.2267 44.1067 34.16C43.1733 35.0933 41.6267 35.0933 40.72 34.16L36.8267 30.32L35.4667 35.5467C35.1467 36.8533 33.8133 37.6 32.56 37.2533C31.2533 36.9067 30.5067 35.6 30.8533 34.32L32.2667 29.0667L27.0133 30.48C25.7333 30.8267 24.4 30.08 24.08 28.7733C23.7333 27.52 24.48 26.1867 25.7867 25.8667L31.0133 24.5067L27.1733 20.6133C26.24 19.7067 26.24 18.1867 27.1733 17.2267C28.1067 16.2933 29.6533 16.2933 30.56 17.2267L34.4267 21.0667L35.8133 15.84C36.1333 14.56 37.44 13.8133 38.6667 14.1333C40 14.48 40.7467 15.7867 40.4267 17.0933L39.0133 22.32L44.24 20.9067C45.5467 20.5867 46.8533 21.3333 47.2 22.6667C47.52 23.8933 46.7733 25.2 45.4933 25.52Z" fill="black"></path>
</svg>
