<?xml version="1.0" encoding="UTF-8"?>
<svg xmlns="http://www.w3.org/2000/svg" width="48" height="48" viewBox="0 0 48 48" fill="none">
  <path d="M24.2 44C21.4 44 18.7747 43.4667 16.324 42.4C13.8747 41.3333 11.742 39.892 9.926 38.076C8.10867 36.2587 6.66667 34.1247 5.6 31.674C4.53333 29.2247 4 26.6 4 23.8C4 18.9333 5.55 14.6413 8.65 10.924C11.75 7.208 15.7 4.9 20.5 4C19.9 7.3 20.0833 10.5247 21.05 13.674C22.0167 16.8247 23.6833 19.5833 26.05 21.95C28.4167 24.3167 31.1753 25.9833 34.326 26.95C37.4753 27.9167 40.7 28.1 44 27.5C43.1333 32.3 40.8333 36.25 37.1 39.35C33.3667 42.45 29.0667 44 24.2 44Z" fill="white"></path>
</svg>
