<?xml version="1.0" encoding="UTF-8"?>
<svg xmlns="http://www.w3.org/2000/svg" width="64" height="64" viewBox="0 0 64 64" fill="none">
  <mask id="mask0_154_2217" style="mask-type:alpha" maskUnits="userSpaceOnUse" x="0" y="0" width="64" height="64">
    <rect width="64" height="64" fill="#D9D9D9"></rect>
  </mask>
  <g mask="url(#mask0_154_2217)">
    <path d="M34.9333 61.3333C31.2 61.3333 27.6996 60.6222 24.432 59.2C21.1662 57.7778 18.3227 55.856 15.9013 53.4347C13.4782 51.0116 11.5556 48.1662 10.1333 44.8987C8.71111 41.6329 8 38.1333 8 34.4C8 27.9111 10.0667 22.1884 14.2 17.232C18.3333 12.2773 23.6 9.2 30 8C29.2 12.4 29.4444 16.6996 30.7333 20.8987C32.0222 25.0996 34.2444 28.7778 37.4 31.9333C40.5555 35.0889 44.2338 37.3111 48.4347 38.6C52.6338 39.8889 56.9333 40.1333 61.3333 39.3333C60.1778 45.7333 57.1111 51 52.1333 55.1333C47.1555 59.2667 41.4222 61.3333 34.9333 61.3333ZM34.9333 56C38.8444 56 42.4667 55.0222 45.8 53.0667C49.1333 51.1111 51.7556 48.4222 53.6667 45C49.8444 44.6444 46.2222 43.6782 42.8 42.1013C39.3778 40.5227 36.3111 38.3778 33.6 35.6667C30.8889 32.9556 28.7333 29.8889 27.1333 26.4667C25.5333 23.0444 24.5778 19.4222 24.2667 15.6C20.8444 17.5111 18.1671 20.144 16.2347 23.4987C14.3004 26.8551 13.3333 30.4889 13.3333 34.4C13.3333 40.4 15.4338 45.4995 19.6347 49.6987C23.8338 53.8995 28.9333 56 34.9333 56Z" fill="black"></path>
  </g>
</svg>
