<?xml version="1.0" encoding="UTF-8"?>
<svg xmlns="http://www.w3.org/2000/svg" width="64" height="64" viewBox="0 0 64 64" fill="none">
  <mask id="mask0_154_2199" style="mask-type:alpha" maskUnits="userSpaceOnUse" x="0" y="0" width="64" height="64">
    <rect width="64" height="64" fill="#D9D9D9"></rect>
  </mask>
  <g mask="url(#mask0_154_2199)">
    <path d="M17.3333 29.335L32 5.33496L46.6667 29.335H17.3333ZM46.6667 58.6683C43.3333 58.6683 40.4995 57.5021 38.1653 55.1696C35.8329 52.8354 34.6667 50.0016 34.6667 46.6683C34.6667 43.335 35.8329 40.5012 38.1653 38.167C40.4995 35.8345 43.3333 34.6683 46.6667 34.6683C50 34.6683 52.8338 35.8345 55.168 38.167C57.5004 40.5012 58.6667 43.335 58.6667 46.6683C58.6667 50.0016 57.5004 52.8354 55.168 55.1696C52.8338 57.5021 50 58.6683 46.6667 58.6683ZM8 57.335V36.0016H29.3333V57.335H8ZM46.6667 53.335C48.5333 53.335 50.1111 52.6905 51.4 51.4016C52.6889 50.1128 53.3333 48.535 53.3333 46.6683C53.3333 44.8016 52.6889 43.2239 51.4 41.935C50.1111 40.6461 48.5333 40.0016 46.6667 40.0016C44.8 40.0016 43.2222 40.6461 41.9333 41.935C40.6444 43.2239 40 44.8016 40 46.6683C40 48.535 40.6444 50.1128 41.9333 51.4016C43.2222 52.6905 44.8 53.335 46.6667 53.335ZM13.3333 52.0016H24V41.335H13.3333V52.0016ZM26.8 24.0016H37.2L32 15.6016L26.8 24.0016Z" fill="black"></path>
  </g>
</svg>
