<?xml version="1.0" encoding="UTF-8"?>
<svg xmlns="http://www.w3.org/2000/svg" width="48" height="48" viewBox="0 0 48 48" fill="none">
  <path d="M7.1 38.18L9.92 41L13.52 37.42L10.68 34.58M24 12C17.38 12 12 17.38 12 24C12 30.62 17.38 36 24 36C30.62 36 36 30.62 36 24C36 17.36 30.62 12 24 12ZM40 26H46V22H40M34.48 37.42L38.08 41L40.9 38.18L37.32 34.58M40.9 10L38.08 7.2L34.48 10.78L37.32 13.62M26 2H22V8H26M13.52 10.78L9.92 7.2L7.1 10L10.68 13.62L13.52 10.78ZM2 26H8V22H2M26 40H22V46H26" fill="white"></path>
</svg>
