<?xml version="1.0" encoding="UTF-8"?>
<svg xmlns="http://www.w3.org/2000/svg" width="48" height="48" viewBox="0 0 48 48" fill="none">
  <path d="M6.00024 24H14.0002C14.0002 21.3478 15.0538 18.8043 16.9292 16.9289C18.8045 15.0536 21.3481 14 24.0002 14C26.6524 14 29.196 15.0536 31.0713 16.9289C32.9467 18.8043 34.0002 21.3478 34.0002 24H42.0002C42.5307 24 43.0394 24.2107 43.4145 24.5858C43.7895 24.9609 44.0002 25.4696 44.0002 26C44.0002 26.5304 43.7895 27.0391 43.4145 27.4142C43.0394 27.7893 42.5307 28 42.0002 28H6.00024C5.46981 28 4.9611 27.7893 4.58603 27.4142C4.21096 27.0391 4.00024 26.5304 4.00024 26C4.00024 25.4696 4.21096 24.9609 4.58603 24.5858C4.9611 24.2107 5.46981 24 6.00024 24ZM10.0002 32H38.0002C38.5307 32 39.0394 32.2107 39.4145 32.5858C39.7895 32.9609 40.0002 33.4696 40.0002 34C40.0002 34.5304 39.7895 35.0391 39.4145 35.4142C39.0394 35.7893 38.5307 36 38.0002 36H10.0002C9.46981 36 8.9611 35.7893 8.58603 35.4142C8.21096 35.0391 8.00024 34.5304 8.00024 34C8.00024 33.4696 8.21096 32.9609 8.58603 32.5858C8.9611 32.2107 9.46981 32 10.0002 32ZM34.0002 40C34.5307 40 35.0394 40.2107 35.4145 40.5858C35.7895 40.9609 36.0002 41.4696 36.0002 42C36.0002 42.5304 35.7895 43.0391 35.4145 43.4142C35.0394 43.7893 34.5307 44 34.0002 44H14.0002C13.4698 44 12.9611 43.7893 12.586 43.4142C12.211 43.0391 12.0002 42.5304 12.0002 42C12.0002 41.4696 12.211 40.9609 12.586 40.5858C12.9611 40.2107 13.4698 40 14.0002 40H34.0002ZM30.0002 24C30.0002 22.4087 29.3681 20.8826 28.2429 19.7574C27.1177 18.6321 25.5915 18 24.0002 18C22.4089 18 20.8828 18.6321 19.7576 19.7574C18.6324 20.8826 18.0002 22.4087 18.0002 24H30.0002ZM24.0002 4L28.7802 10.84C27.3002 10.3 25.6802 10 24.0002 10C22.3202 10 20.7002 10.3 19.2202 10.84L24.0002 4ZM6.68024 14L15.0002 13.3C13.8002 14.32 12.7202 15.56 11.8802 17C11.0002 18.48 10.5002 20 10.2202 21.58L6.68024 14ZM41.3002 14L37.7602 21.58C37.4802 20 36.9402 18.46 36.1002 17C35.2602 15.56 34.2002 14.3 33.0002 13.28L41.3002 14Z" fill="white"></path>
</svg>
